<svg width="95" height="88" viewBox="0 0 95 88" fill="none" xmlns="http://www.w3.org/2000/svg">
<path fill-rule="evenodd" clip-rule="evenodd" d="M0.000402582 0V0.529797V1.05959V1.58939V2.11919V2.64899V3.17878V3.70858V4.23838V4.76818V5.29797V5.82777V6.35757V6.88737V7.41716V7.94696V8.47676V9.00655V9.53635V10.0661V10.5959V11.1257V11.6555V12.1853V12.7151V13.2449V13.7747V14.3045V14.8343V15.3641V15.8939V16.4237V16.9535V17.4829V18.0127V18.5425V19.0723V19.6021V20.1319V20.6617V21.1915V21.7213V22.2511V22.7809V23.3107V23.8405V24.3703V24.9001V25.4299V25.9597V26.4895V27.0193V27.5491V28.0789V28.6087V29.1384V29.6682V30.198V30.7278V31.2576V31.7874V32.3172V32.847V33.3768V33.9066V52.683C0.155396 57.8494 0.566432 62.7286 1.55074 66.6124C3.86277 75.7336 8.07941 81.7695 17.2546 84.8114C24.7495 87.2962 33.566 87.5635 43.2618 87.5864H48.181H48.7361V66.0439C34.5657 66.0439 25.4448 68.0375 23.7499 55.0079C23.3449 51.8944 23.6617 24.3421 23.6617 18.7208H48.7361V0.00362323H0L0.000402582 0Z" fill="#394F91"/>
<path fill-rule="evenodd" clip-rule="evenodd" d="M69.5725 18.7172V86.1702H95V0H58.2712C59.1372 1.63649 60.165 3.0874 61.0805 4.60714C62.0249 6.1748 63.0064 7.69816 63.9054 9.19859L69.5729 18.7172H69.5725Z" fill="#394F91"/>
<path fill-rule="evenodd" clip-rule="evenodd" d="M40.2599 35.6002C38.0248 35.9681 33.8174 37.942 31.4309 38.1405L44.568 41.6023C48.3937 42.498 48.6831 41.938 50.2713 43.6687L63.2856 58.644C63.664 59.0268 63.3548 59.208 63.8802 59.0461C64.7675 58.7736 64.2747 40.4742 64.2747 38.4939C64.2747 37.3196 64.5871 29.2946 63.9217 28.2599L49.442 42.4598C47.6791 41.4666 46.4867 40.2544 44.7878 38.9138C43.731 38.0797 41.4777 36.0809 40.2599 35.6002Z" fill="#394F91"/>
<path fill-rule="evenodd" clip-rule="evenodd" d="M40.2603 35.6005C41.4781 36.0812 43.731 38.08 44.7882 38.9142C46.4871 40.2548 47.6795 41.4669 49.4424 42.4601L63.9221 28.2602C62.6543 27.439 32.7727 27.8995 31.4309 27.8995C31.7035 28.9189 31.5299 28.3786 32.127 28.9696L35.6689 31.7848C36.5207 32.4503 37.0763 32.9411 38.0401 33.6516C38.9544 34.3251 39.6259 34.7732 40.2599 35.6013L40.2603 35.6005Z" fill="#6E8CC6"/>
</svg>
